<?xml version="1.0" encoding="utf-8"?>
<svg id="master-artboard" viewBox="0 0 1400 980" version="1.1" xmlns="http://www.w3.org/2000/svg" x="0px" y="0px" style="enable-background:new 0 0 336 235.2;" width="1400px" height="980px"><rect id="ee-background" x="0" y="0" width="1400" height="980" style="fill: white; fill-opacity: 0; pointer-events: none;"/>














<g transform="matrix(1.3102104663848877, 0, 0, 1.3102104663848877, 114.02571105957031, -2.842170943040401e-14)"><title>empty_cart</title><path d="M193.634,788.75225c12.42842,23.049,38.806,32.9435,38.806,32.9435s6.22712-27.47543-6.2013-50.52448-38.806-32.9435-38.806-32.9435S181.20559,765.7032,193.634,788.75225Z" transform="translate(-152 -76.01429)" fill="#2f2e41"/><path d="M202.17653,781.16927c22.43841,13.49969,31.08016,40.3138,31.08016,40.3138s-27.73812,4.92679-50.17653-8.57291S152,772.59636,152,772.59636,179.73811,767.66958,202.17653,781.16927Z" transform="translate(-152 -76.01429)" fill="#00adb5"/><path d="M 583.248474 113.907791 H 585.248474 V 132.407791 H 583.248474 V 113.907791 Z" fill="#f2f2f2"/><path d="M 708.248474 158.907791 H 710.248474 V 177.407791 H 708.248474 V 158.907791 Z" fill="#f2f2f2"/><path d="M 694.248474 622.907776 H 696.248474 V 641.407776 H 694.248474 V 622.907776 Z" fill="#f2f2f2"/><path d="M 723.248474 469.907776 H 725.248474 V 488.407776 H 723.248474 V 469.907776 Z" fill="#f2f2f2"/><path d="M 362.05999755859375 702.1840209960938 L 125.27400207519531 702.1840209960938 L 125.27400207519531 700.4810180664062 L 360.3559875488281 700.4810180664062 L 360.3559875488281 617.8610229492188 L 145.17999267578125 617.8610229492188 L 134.7270050048828 596.083984375 L 136.26300048828125 595.3469848632812 L 146.2519989013672 616.156982421875 L 362.05999755859375 616.156982421875 L 362.05999755859375 702.1840209960938 Z" fill="#2f2e41"/><path d="M 174.675243 726.03302 A 17.88673 17.88673 0 0 1 156.788513 743.91975 A 17.88673 17.88673 0 0 1 138.901783 726.03302 A 17.88673 17.88673 0 0 1 156.788513 708.14629 A 17.88673 17.88673 0 0 1 174.675243 726.03302 Z" fill="#3f3d56"/><path d="M 350.987255 726.03302 A 17.88673 17.88673 0 0 1 333.100525 743.91975 A 17.88673 17.88673 0 0 1 315.213795 726.03302 A 17.88673 17.88673 0 0 1 333.100525 708.14629 A 17.88673 17.88673 0 0 1 350.987255 726.03302 Z" fill="#3f3d56"/><path d="M 551.999986 346.153015 A 11.07274 11.07274 0 0 1 540.927246 357.225755 A 11.07274 11.07274 0 0 1 529.854506 346.153015 A 11.07274 11.07274 0 0 1 540.927246 335.080276 A 11.07274 11.07274 0 0 1 551.999986 346.153015 Z" fill="#3f3d56"/><path d="M 538.9753458203126 669.4574724414063 L 273.23673 668.2274309375 L 215.64844 477.531 L 598.69256 477.531 L 598.34404 478.63853 L 538.9753458203126 669.4574724414063 Z M 274.49688000000003 664.06397 L 537.7259658203125 665.29395046875 L 596.3701699999999 479.23446 L 217.95082 479.23446 L 274.49688000000003 664.06397 Z" transform="matrix(0.979500223046525, 0, 0, 0.979500223046525, -144.96185109382398, -64.2956611272619)" fill="#2f2e41"/><path d="M 366.6099853515625 579.9580078125 L 132.8419952392578 579.9580078125 L 82.26000213623047 413.0150146484375 L 418.70098876953125 413.0150146484375 L 418.3949890136719 413.99798583984375 L 366.6099853515625 579.9580078125 Z" fill="#f2f2f2" transform="matrix(1.099131398144143, 0, 0, 1.099131398144143, -21.16766499992996, -49.51022511833753)" style="fill: rgb(0, 173, 181);"/><path d="M 451.4649963378906 384.70001220703125 L 449.8179931640625 384.26300048828125 L 461.0589904785156 341.8940124511719 L 526.447998046875 341.8940124511719 L 526.447998046875 343.5979919433594 L 462.3699951171875 343.5979919433594 L 451.4649963378906 384.70001220703125 Z" fill="#2f2e41"/><path d="M 82.2584 458.583862 H 427.551491 V 460.287362 H 82.2584 V 458.583862 Z" fill="#2f2e41" transform="matrix(0.9810493802500918, 0, 0, 0.9810493802500918, 4.286184542486785, 8.69044839798039)"/><path d="M 101.458939 521.34375 H 407.777451 V 523.04725 H 101.458939 V 521.34375 Z" fill="#2f2e41" transform="matrix(0.9786381914283773, 0, 0, 0.9786381914283773, 5.657920545699248, 11.136845387511938)"/><path d="M 254.313766 402.368439 H 256.017267 V 588.901443 H 254.313766 V 402.368439 Z" fill="#2f2e41"/><path d="M 385.557465 570.797302 H 572.486237 V 572.501092 H 385.557465 V 570.797302 Z" transform="translate(-274.73922 936.23495) rotate(-86.24919)" fill="#2f2e41"/><path d="M 334.457275 478.184845 H 336.161065 V 665.113617 H 334.457275 V 478.184845 Z" transform="translate(-188.46866 -52.99638) rotate(-3.729)" fill="#2f2e41"/><path d="M 0 745 H 896 V 747 H 0 V 745 Z" fill="#2f2e41"/><path d="M747.41068,137.89028s14.61842,41.60627,5.62246,48.00724S783.39448,244.573,783.39448,244.573l47.22874-12.80193-25.86336-43.73993s-3.37348-43.73992-3.37348-50.14089S747.41068,137.89028,747.41068,137.89028Z" transform="translate(-152 -76.01429)" fill="#a0616a"/><path d="M747.41068,137.89028s14.61842,41.60627,5.62246,48.00724S783.39448,244.573,783.39448,244.573l47.22874-12.80193-25.86336-43.73993s-3.37348-43.73992-3.37348-50.14089S747.41068,137.89028,747.41068,137.89028Z" transform="translate(-152 -76.01429)" opacity="0.1"/><path d="M722.87364,434.46832s-4.26731,53.34138,0,81.07889,10.66828,104.5491,10.66828,104.5491,0,145.08854,23.4702,147.22219,40.53945,4.26731,42.6731-4.26731-10.66827-12.80193-4.26731-17.06924,8.53462-19.20289,0-36.27213,0-189.8953,0-189.8953l40.53945,108.81641s4.26731,89.61351,8.53462,102.41544-4.26731,36.27213,10.66827,38.40579,32.00483-10.66828,40.53945-14.93559-12.80193-4.26731-8.53462-6.401,17.06924-8.53462,12.80193-10.66828-8.53462-104.54909-8.53462-104.54909S879.69728,414.1986,864.7617,405.664s-24.537,6.16576-24.537,6.16576Z" transform="translate(-152 -76.01429)" fill="#2f2e41"/><path d="M761.27943,758.78388v17.06924s-19.20289,46.39942,0,46.39942,34.13848,4.8083,34.13848-1.59266V763.05119Z" transform="translate(-152 -76.01429)" fill="#2f2e41"/><path d="M887.16508,758.75358v17.06924s19.20289,46.39941,0,46.39941-34.13848,4.80831-34.13848-1.59266V763.02089Z" transform="translate(-152 -76.01429)" fill="#2f2e41"/><path d="M 663.687649 54.408199 A 38.405788 38.405788 0 0 1 625.28186 92.813988 A 38.405788 38.405788 0 0 1 586.876072 54.408199 A 38.405788 38.405788 0 0 1 625.28186 16.002411 A 38.405788 38.405788 0 0 1 663.687649 54.408199 Z" fill="#a0616a"/><path d="M765.54674,201.89993s10.66828,32.00482,27.73752,25.60386l17.06924-6.401L840.22467,425.9337s-23.47021,34.13848-57.60869,12.80193S765.54674,201.89993,765.54674,201.89993Z" transform="translate(-152 -76.01429)" fill="#00adb5"/><path d="M795.41791,195.499l9.60145-20.26972s56.54186,26.67069,65.07648,35.20531,8.53462,21.33655,8.53462,21.33655l-14.93559,53.34137s4.26731,117.351,4.26731,121.61834,14.93559,27.73751,4.26731,19.20289-12.80193-17.06924-21.33655-4.26731-27.73751,27.73752-27.73751,27.73752Z" transform="translate(-152 -76.01429)" fill="#3f3d56"/><path d="M870.09584,349.12212l-6.401,59.74234s-38.40579,34.13848-29.87117,36.27214,12.80193-6.401,12.80193-6.401,14.93559,14.93559,23.47021,6.401S899.967,355.52309,899.967,355.52309Z" transform="translate(-152 -76.01429)" fill="#a0616a"/><path d="M778.1,76.14416c-8.51412-.30437-17.62549-.45493-24.80406,4.13321a36.31263,36.31263,0,0,0-8.5723,8.39153c-6.99153,8.83846-13.03253,19.95926-10.43553,30.92537l3.01633-1.1764a19.75086,19.75086,0,0,1-1.90515,8.46261c.42475-1.2351,1.84722.76151,1.4664,2.01085L733.543,139.792c5.46207-2.00239,12.25661,2.05189,13.08819,7.80969.37974-12.66123,1.6932-27.17965,11.964-34.59331,5.17951-3.73868,11.73465-4.88,18.04162-5.8935,5.81832-.935,11.91781-1.82659,17.49077.08886s10.31871,7.615,9.0553,13.37093c2.56964-.88518,5.44356.90566,6.71347,3.30856s1.33662,5.2375,1.37484,7.95506c2.73911,1.93583,5.85632-1.9082,6.97263-5.07112,2.62033-7.42434,4.94941-15.32739,3.53783-23.073s-7.72325-15.14773-15.59638-15.174a5.46676,5.46676,0,0,0,1.42176-3.84874l-6.48928-.5483a7.1723,7.1723,0,0,0,4.28575-2.25954C802.7981,84.73052,782.31323,76.29477,778.1,76.14416Z" transform="translate(-152 -76.01429)" fill="#2f2e41"/><path d="M776.215,189.098s-17.36929-17.02085-23.62023-15.97822S737.80923,189.098,737.80923,189.098s-51.20772,17.06924-49.07407,34.13848S714.339,323.51826,714.339,323.51826s19.2029,100.28179,2.13366,110.95006,81.07889,38.40579,83.21254,25.60386,6.401-140.82123,0-160.02412S776.215,189.098,776.215,189.098Z" transform="translate(-152 -76.01429)" fill="#3f3d56"/><path d="M850.89294,223.23648h26.38265S895.6997,304.31537,897.83335,312.85s6.401,49.07406,4.26731,49.07406-44.80675-8.53462-44.80675-2.13365Z" transform="translate(-152 -76.01429)" fill="#3f3d56"/><path d="M850,424.01429H749c-9.85608-45.34-10.67957-89.14649,0-131H850C833.70081,334.115,832.68225,377.62137,850,424.01429Z" transform="translate(-152 -76.01429)" fill="#f2f2f2" style="fill: rgb(0, 173, 181);"/><path d="M707.93806,368.325,737.80923,381.127s57.60868,8.53462,57.60868-14.93559-57.60868-10.66827-57.60868-10.66827L718.60505,349.383Z" transform="translate(-152 -76.01429)" fill="#a0616a"/><path d="M714.339,210.43455l-25.60386,6.401L669.53227,329.91923s-6.401,29.87117,4.26731,32.00482S714.339,381.127,714.339,381.127s4.26731-32.00483,12.80193-32.00483L705.8044,332.05288,718.60633,257.375Z" transform="translate(-152 -76.01429)" fill="#3f3d56"/><path d="M 126.21900177001953 491.44610595703125 L 112.47760772705078 490.13739013671875" style="fill: rgb(0, 173, 181); fill-opacity: 1; stroke: rgb(0, 0, 0); stroke-opacity: 1; stroke-width: 0; paint-order: fill;"/><path d="M 106.34371185302734 604.3461303710938" style="fill: rgb(47, 46, 65); fill-opacity: 1; stroke: rgb(0, 0, 0); stroke-opacity: 1; stroke-width: 0; paint-order: fill;"/><path d="M 240.36676025390625 259.0513610839844 L 240.36676025390625 259.0513610839844" style="fill: rgb(0, 173, 181); fill-opacity: 1; stroke: rgb(0, 0, 0); stroke-opacity: 1; stroke-width: 0; paint-order: fill;"/></g></svg>